<mxfile host="app.diagrams.net" modified="2023-10-13T15:41:06.454Z" agent="Mozilla/5.0 (Macintosh; Intel Mac OS X 10_15_7) AppleWebKit/537.36 (KHTML, like Gecko) Chrome/117.0.0.0 Safari/537.36" etag="ac8Syor6xpeCu57Qo1Ld" version="22.0.4" type="device">
  <diagram name="Page-1" id="l6TKDIzjCPLKmsse-0Bk">
    <mxGraphModel dx="885" dy="2284" grid="1" gridSize="10" guides="1" tooltips="1" connect="1" arrows="1" fold="1" page="1" pageScale="1" pageWidth="1169" pageHeight="827" math="0" shadow="0">
      <root>
        <mxCell id="0" />
        <mxCell id="1" parent="0" />
        <mxCell id="84my8lBbuLi3B6D-7Pqr-2" value="" style="strokeWidth=1;shadow=0;dashed=0;align=center;shape=mxgraph.mockup.containers.browserWindow;rSize=0;strokeColor=#D6B656;strokeColor2=#008cff;strokeColor3=#c4c4c4;mainText=,;recursiveResize=0;labelBackgroundColor=none;html=1;whiteSpace=wrap;fillColor=#1A1A1A;fontColor=#D6B656;" vertex="1" parent="1">
          <mxGeometry x="150" y="-851" width="960" height="2092" as="geometry" />
        </mxCell>
        <mxCell id="84my8lBbuLi3B6D-7Pqr-4" value="&lt;font color=&quot;#ffffff&quot;&gt;www.lydiagebre.com&lt;/font&gt;" style="strokeWidth=1;shadow=0;dashed=0;align=center;html=1;shape=mxgraph.mockup.containers.anchor;rSize=0;fontSize=17;fontColor=#666666;align=left;" vertex="1" parent="84my8lBbuLi3B6D-7Pqr-2">
          <mxGeometry x="130" y="60" width="250" height="26" as="geometry" />
        </mxCell>
        <mxCell id="84my8lBbuLi3B6D-7Pqr-9" value="" style="verticalLabelPosition=bottom;shadow=0;dashed=0;align=center;html=1;verticalAlign=top;strokeWidth=1;shape=mxgraph.mockup.containers.userFemale;strokeColor=#666666;strokeColor2=#008cff;" vertex="1" parent="84my8lBbuLi3B6D-7Pqr-2">
          <mxGeometry x="265" y="300" width="100" height="100" as="geometry" />
        </mxCell>
        <mxCell id="84my8lBbuLi3B6D-7Pqr-10" value="About" style="text;html=1;strokeColor=none;fillColor=none;align=center;verticalAlign=middle;whiteSpace=wrap;rounded=0;fontSize=15;fontColor=#FFFFFF;" vertex="1" parent="84my8lBbuLi3B6D-7Pqr-2">
          <mxGeometry x="630" y="130" width="60" height="30" as="geometry" />
        </mxCell>
        <mxCell id="84my8lBbuLi3B6D-7Pqr-11" value="Resume" style="text;html=1;strokeColor=none;fillColor=none;align=center;verticalAlign=middle;rounded=0;fontSize=15;fontColor=#FFFFFF;" vertex="1" parent="84my8lBbuLi3B6D-7Pqr-2">
          <mxGeometry x="725" y="130" width="60" height="30" as="geometry" />
        </mxCell>
        <mxCell id="84my8lBbuLi3B6D-7Pqr-12" value="Portifolio" style="text;html=1;strokeColor=none;fillColor=none;align=center;verticalAlign=middle;whiteSpace=wrap;rounded=0;fontSize=15;fontColor=#FFFFFF;" vertex="1" parent="84my8lBbuLi3B6D-7Pqr-2">
          <mxGeometry x="815" y="130" width="60" height="30" as="geometry" />
        </mxCell>
        <mxCell id="84my8lBbuLi3B6D-7Pqr-13" value="Contact" style="text;html=1;strokeColor=none;fillColor=none;align=center;verticalAlign=middle;whiteSpace=wrap;rounded=0;fontSize=15;fontColor=#FFFFFF;" vertex="1" parent="84my8lBbuLi3B6D-7Pqr-2">
          <mxGeometry x="890" y="130" width="60" height="30" as="geometry" />
        </mxCell>
        <mxCell id="84my8lBbuLi3B6D-7Pqr-14" value="Lydia Gebre&lt;br style=&quot;font-size: 15px;&quot;&gt;Web Developer&amp;nbsp;" style="text;html=1;strokeColor=none;fillColor=none;align=center;verticalAlign=middle;whiteSpace=wrap;rounded=0;fontStyle=2;fontSize=15;fontColor=#D6B656;" vertex="1" parent="84my8lBbuLi3B6D-7Pqr-2">
          <mxGeometry x="275" y="250" width="330" height="30" as="geometry" />
        </mxCell>
        <mxCell id="84my8lBbuLi3B6D-7Pqr-16" value="&lt;h1&gt;About me&amp;nbsp;&lt;/h1&gt;&lt;p&gt;Lorem ipsum dolor sit amet, consectetur adipisicing elit, sed do eiusmod tempor incididunt ut labore et dolore magna aliqua.&lt;/p&gt;" style="text;html=1;strokeColor=none;fillColor=none;spacing=5;spacingTop=-20;whiteSpace=wrap;overflow=hidden;rounded=0;fontColor=#FFFFFF;" vertex="1" parent="84my8lBbuLi3B6D-7Pqr-2">
          <mxGeometry x="385" y="300" width="310" height="110" as="geometry" />
        </mxCell>
        <mxCell id="84my8lBbuLi3B6D-7Pqr-17" value="&lt;h1 style=&quot;font-size: 23px;&quot;&gt;&lt;font style=&quot;font-size: 23px;&quot;&gt;My services&lt;/font&gt;&lt;/h1&gt;&lt;p style=&quot;font-size: 23px;&quot;&gt;&lt;br&gt;&lt;/p&gt;" style="text;html=1;strokeColor=none;fillColor=none;spacing=5;spacingTop=-20;whiteSpace=wrap;overflow=hidden;rounded=0;fontColor=#D6B656;" vertex="1" parent="84my8lBbuLi3B6D-7Pqr-2">
          <mxGeometry x="55" y="491" width="290" height="120" as="geometry" />
        </mxCell>
        <mxCell id="84my8lBbuLi3B6D-7Pqr-21" value="&lt;h1&gt;Portfolio&lt;/h1&gt;" style="text;html=1;strokeColor=none;fillColor=none;spacing=5;spacingTop=-20;whiteSpace=wrap;overflow=hidden;rounded=0;fontColor=#D6B656;" vertex="1" parent="84my8lBbuLi3B6D-7Pqr-2">
          <mxGeometry x="425" y="1273" width="280" height="120" as="geometry" />
        </mxCell>
        <mxCell id="84my8lBbuLi3B6D-7Pqr-22" value="" style="shape=mxgraph.mockup.containers.marginRect;rectMarginTop=10;strokeColor=#666666;strokeWidth=1;dashed=0;rounded=1;arcSize=5;recursiveResize=0;html=1;whiteSpace=wrap;" vertex="1" parent="84my8lBbuLi3B6D-7Pqr-2">
          <mxGeometry x="55" y="1353" width="150" height="200" as="geometry" />
        </mxCell>
        <mxCell id="84my8lBbuLi3B6D-7Pqr-24" value="" style="shape=mxgraph.mockup.containers.marginRect;rectMarginTop=10;strokeColor=#666666;strokeWidth=1;dashed=0;rounded=1;arcSize=5;recursiveResize=0;html=1;whiteSpace=wrap;" vertex="1" parent="84my8lBbuLi3B6D-7Pqr-2">
          <mxGeometry x="275" y="1353" width="150" height="200" as="geometry" />
        </mxCell>
        <mxCell id="84my8lBbuLi3B6D-7Pqr-26" value="" style="shape=mxgraph.mockup.containers.marginRect;rectMarginTop=10;strokeColor=#666666;strokeWidth=1;dashed=0;rounded=1;arcSize=5;recursiveResize=0;html=1;whiteSpace=wrap;" vertex="1" parent="84my8lBbuLi3B6D-7Pqr-2">
          <mxGeometry x="505" y="1353" width="150" height="200" as="geometry" />
        </mxCell>
        <mxCell id="84my8lBbuLi3B6D-7Pqr-28" value="" style="shape=mxgraph.mockup.containers.marginRect;rectMarginTop=10;strokeColor=#666666;strokeWidth=1;dashed=0;rounded=1;arcSize=5;recursiveResize=0;html=1;whiteSpace=wrap;" vertex="1" parent="84my8lBbuLi3B6D-7Pqr-2">
          <mxGeometry x="725" y="1353" width="150" height="200" as="geometry" />
        </mxCell>
        <mxCell id="84my8lBbuLi3B6D-7Pqr-31" value="&lt;h1&gt;&lt;font color=&quot;#d6b656&quot;&gt;Get in Touch&lt;/font&gt;&lt;br&gt;&lt;/h1&gt;" style="text;html=1;strokeColor=none;fillColor=none;spacing=5;spacingTop=-20;whiteSpace=wrap;overflow=hidden;rounded=0;" vertex="1" parent="84my8lBbuLi3B6D-7Pqr-2">
          <mxGeometry x="395" y="1612" width="300" height="113" as="geometry" />
        </mxCell>
        <mxCell id="84my8lBbuLi3B6D-7Pqr-32" value="&lt;h1 style=&quot;font-size: 21px;&quot;&gt;&lt;font color=&quot;#d6b656&quot;&gt;Message me&amp;nbsp;&lt;/font&gt;&lt;/h1&gt;" style="text;html=1;strokeColor=none;fillColor=none;spacing=5;spacingTop=-20;whiteSpace=wrap;overflow=hidden;rounded=0;fontSize=21;" vertex="1" parent="84my8lBbuLi3B6D-7Pqr-2">
          <mxGeometry x="227.5" y="1666" width="190" height="120" as="geometry" />
        </mxCell>
        <mxCell id="84my8lBbuLi3B6D-7Pqr-44" value="From" style="strokeWidth=1;shadow=0;dashed=0;align=center;html=1;shape=mxgraph.mockup.forms.anchor;align=right;spacingRight=2;fontColor=#FFFFFF;" vertex="1" parent="84my8lBbuLi3B6D-7Pqr-2">
          <mxGeometry x="227.5" y="1741" width="50" height="18" as="geometry" />
        </mxCell>
        <mxCell id="84my8lBbuLi3B6D-7Pqr-45" value="john@jgraph.com" style="strokeWidth=1;shadow=0;dashed=0;align=center;html=1;shape=mxgraph.mockup.forms.rrect;fillColor=#ffffff;rSize=0;fontColor=#666666;align=left;spacingLeft=3;strokeColor=#999999;" vertex="1" parent="84my8lBbuLi3B6D-7Pqr-2">
          <mxGeometry x="305" y="1741" width="350" height="18" as="geometry" />
        </mxCell>
        <mxCell id="84my8lBbuLi3B6D-7Pqr-46" value="Subject" style="strokeWidth=1;shadow=0;dashed=0;align=center;html=1;shape=mxgraph.mockup.forms.anchor;align=right;spacingRight=2;fontColor=#FFFFFF;" vertex="1" parent="84my8lBbuLi3B6D-7Pqr-2">
          <mxGeometry x="240" y="1768" width="50" height="18" as="geometry" />
        </mxCell>
        <mxCell id="84my8lBbuLi3B6D-7Pqr-47" value="Greeting" style="strokeWidth=1;shadow=0;dashed=0;align=center;html=1;shape=mxgraph.mockup.forms.rrect;fillColor=#ffffff;rSize=0;fontColor=#666666;align=left;spacingLeft=3;strokeColor=#999999;" vertex="1" parent="84my8lBbuLi3B6D-7Pqr-2">
          <mxGeometry x="305" y="1768" width="350" height="18" as="geometry" />
        </mxCell>
        <mxCell id="84my8lBbuLi3B6D-7Pqr-48" value="To" style="strokeWidth=1;shadow=0;dashed=0;align=center;html=1;shape=mxgraph.mockup.forms.anchor;align=right;spacingRight=2;fontColor=#666666;" vertex="1" parent="84my8lBbuLi3B6D-7Pqr-2">
          <mxGeometry x="240" y="1803" width="50" height="18" as="geometry" />
        </mxCell>
        <mxCell id="84my8lBbuLi3B6D-7Pqr-49" value="fred@jgraph.com" style="strokeWidth=1;shadow=0;dashed=0;align=center;html=1;shape=mxgraph.mockup.forms.rrect;fillColor=#ffffff;rSize=0;fontColor=#666666;align=left;spacingLeft=3;strokeColor=#999999;" vertex="1" parent="84my8lBbuLi3B6D-7Pqr-2">
          <mxGeometry x="305" y="1803" width="350" height="18" as="geometry" />
        </mxCell>
        <mxCell id="84my8lBbuLi3B6D-7Pqr-50" value="CC" style="strokeWidth=1;shadow=0;dashed=0;align=center;html=1;shape=mxgraph.mockup.forms.anchor;align=right;spacingRight=2;fontColor=#666666;" vertex="1" parent="84my8lBbuLi3B6D-7Pqr-2">
          <mxGeometry x="240" y="1838" width="50" height="18" as="geometry" />
        </mxCell>
        <mxCell id="84my8lBbuLi3B6D-7Pqr-51" value="" style="strokeWidth=1;shadow=0;dashed=0;align=center;html=1;shape=mxgraph.mockup.forms.rrect;fillColor=#ffffff;rSize=0;fontColor=#666666;align=left;spacingLeft=3;strokeColor=#999999;" vertex="1" parent="84my8lBbuLi3B6D-7Pqr-2">
          <mxGeometry x="305" y="1838" width="350" height="18" as="geometry" />
        </mxCell>
        <mxCell id="84my8lBbuLi3B6D-7Pqr-52" value="BCC" style="strokeWidth=1;shadow=0;dashed=0;align=center;html=1;shape=mxgraph.mockup.forms.anchor;align=right;spacingRight=2;fontColor=#666666;" vertex="1" parent="84my8lBbuLi3B6D-7Pqr-2">
          <mxGeometry x="240" y="1873" width="50" height="18" as="geometry" />
        </mxCell>
        <mxCell id="84my8lBbuLi3B6D-7Pqr-53" value="" style="strokeWidth=1;shadow=0;dashed=0;align=center;html=1;shape=mxgraph.mockup.forms.rrect;fillColor=#ffffff;rSize=0;fontColor=#666666;align=left;spacingLeft=3;strokeColor=#999999;" vertex="1" parent="84my8lBbuLi3B6D-7Pqr-2">
          <mxGeometry x="305" y="1873" width="350" height="18" as="geometry" />
        </mxCell>
        <mxCell id="84my8lBbuLi3B6D-7Pqr-54" value="Lorem ipsum dolor sit amet, consectetur adipisicing elit, sed do eiusmod tempor incididunt ut labore et dolore magna aliqua. Ut enim ad minim veniam, quis nostrud exercitation ullamco laboris nisi ut aliquip ex ea commodo consequat. Duis aute irure dolor in reprehenderit in voluptate velit esse cillum dolore eu fugiat nulla pariatur. Excepteur sint occaecat cupidatat non proident, sunt in culpa qui officia deserunt mollit anim id est laborum." style="strokeWidth=1;shadow=0;dashed=0;align=center;html=1;shape=mxgraph.mockup.forms.rrect;fillColor=#ffffff;rSize=0;fontColor=#666666;align=left;spacingLeft=3;strokeColor=#999999;verticalAlign=top;whiteSpace=wrap;" vertex="1" parent="84my8lBbuLi3B6D-7Pqr-2">
          <mxGeometry x="255" y="1901" width="400" height="125" as="geometry" />
        </mxCell>
        <mxCell id="84my8lBbuLi3B6D-7Pqr-56" value="&lt;h1 style=&quot;font-size: 16px;&quot;&gt;Yonas Demisse&lt;/h1&gt;&lt;p&gt;Lorem ipsum dolor sit amet, consectetur adipisicing elit, sed do eiusmod tempor incididunt ut labore et dolore magna aliqua.&lt;/p&gt;" style="text;html=1;strokeColor=none;fillColor=none;spacing=5;spacingTop=-20;whiteSpace=wrap;overflow=hidden;rounded=0;fontColor=#FFFFFF;" vertex="1" parent="84my8lBbuLi3B6D-7Pqr-2">
          <mxGeometry x="205" y="1124" width="235" height="120" as="geometry" />
        </mxCell>
        <mxCell id="84my8lBbuLi3B6D-7Pqr-55" value="" style="verticalLabelPosition=bottom;shadow=0;dashed=0;align=center;html=1;verticalAlign=top;strokeWidth=1;shape=mxgraph.mockup.containers.userMale;strokeColor=#666666;strokeColor2=#008cff;spacingTop=70;" vertex="1" parent="84my8lBbuLi3B6D-7Pqr-2">
          <mxGeometry x="92.5" y="1124" width="75" height="57" as="geometry" />
        </mxCell>
        <mxCell id="84my8lBbuLi3B6D-7Pqr-57" value="Testimonials&amp;nbsp;" style="text;html=1;strokeColor=none;fillColor=none;align=center;verticalAlign=middle;whiteSpace=wrap;rounded=0;fontStyle=1;fontSize=23;fontColor=#D6B656;" vertex="1" parent="84my8lBbuLi3B6D-7Pqr-2">
          <mxGeometry x="120" y="1049" width="60" height="30" as="geometry" />
        </mxCell>
        <mxCell id="84my8lBbuLi3B6D-7Pqr-58" value="&lt;h1 style=&quot;font-size: 16px;&quot;&gt;Nadia Hussein&lt;/h1&gt;&lt;p&gt;Lorem ipsum dolor sit amet, consectetur adipisicing elit, sed do eiusmod tempor incididunt ut labore et dolore magna aliqua.&lt;/p&gt;" style="text;html=1;strokeColor=none;fillColor=none;spacing=5;spacingTop=-20;whiteSpace=wrap;overflow=hidden;rounded=0;fontColor=#FFFFFF;" vertex="1" parent="84my8lBbuLi3B6D-7Pqr-2">
          <mxGeometry x="655" y="1124" width="235" height="120" as="geometry" />
        </mxCell>
        <mxCell id="84my8lBbuLi3B6D-7Pqr-59" value="" style="verticalLabelPosition=bottom;shadow=0;dashed=0;align=center;html=1;verticalAlign=top;strokeWidth=1;shape=mxgraph.mockup.containers.userFemale;strokeColor=#666666;strokeColor2=#008cff;" vertex="1" parent="84my8lBbuLi3B6D-7Pqr-2">
          <mxGeometry x="545" y="1124" width="70" height="57" as="geometry" />
        </mxCell>
        <mxCell id="84my8lBbuLi3B6D-7Pqr-60" value="" style="shape=mxgraph.mockup.containers.marginRect;rectMarginTop=10;strokeColor=#666666;strokeWidth=1;dashed=0;rounded=1;arcSize=5;recursiveResize=0;html=1;whiteSpace=wrap;" vertex="1" parent="84my8lBbuLi3B6D-7Pqr-2">
          <mxGeometry x="75" y="560" width="150" height="200" as="geometry" />
        </mxCell>
        <mxCell id="84my8lBbuLi3B6D-7Pqr-61" value="Design Trends" style="shape=rect;strokeColor=none;fillColor=#008cff;strokeWidth=1;dashed=0;rounded=1;arcSize=20;fontColor=#ffffff;fontSize=17;spacing=2;spacingTop=-2;align=left;autosize=1;spacingLeft=4;resizeWidth=0;resizeHeight=0;perimeter=none;html=1;whiteSpace=wrap;" vertex="1" parent="84my8lBbuLi3B6D-7Pqr-60">
          <mxGeometry x="5" width="145" height="30" as="geometry" />
        </mxCell>
        <mxCell id="84my8lBbuLi3B6D-7Pqr-80" value="" style="outlineConnect=0;dashed=0;verticalLabelPosition=bottom;verticalAlign=top;align=center;html=1;shape=mxgraph.aws3.android;fillColor=#205E00;gradientColor=none;" vertex="1" parent="84my8lBbuLi3B6D-7Pqr-60">
          <mxGeometry x="38.25" y="58" width="73.5" height="84" as="geometry" />
        </mxCell>
        <mxCell id="84my8lBbuLi3B6D-7Pqr-62" value="" style="shape=mxgraph.mockup.containers.marginRect;rectMarginTop=10;strokeColor=#666666;strokeWidth=1;dashed=0;rounded=1;arcSize=5;recursiveResize=0;html=1;whiteSpace=wrap;" vertex="1" parent="84my8lBbuLi3B6D-7Pqr-2">
          <mxGeometry x="505" y="555" width="175" height="210" as="geometry" />
        </mxCell>
        <mxCell id="84my8lBbuLi3B6D-7Pqr-63" value="Web Development" style="shape=rect;strokeColor=none;fillColor=#008cff;strokeWidth=1;dashed=0;rounded=1;arcSize=20;fontColor=#ffffff;fontSize=17;spacing=2;spacingTop=-2;align=left;autosize=1;spacingLeft=4;resizeWidth=0;resizeHeight=0;perimeter=none;html=1;whiteSpace=wrap;" vertex="1" parent="84my8lBbuLi3B6D-7Pqr-62">
          <mxGeometry x="5" width="170" height="30" as="geometry" />
        </mxCell>
        <mxCell id="84my8lBbuLi3B6D-7Pqr-82" value="" style="shape=image;html=1;verticalAlign=top;verticalLabelPosition=bottom;labelBackgroundColor=#ffffff;imageAspect=0;aspect=fixed;image=https://cdn2.iconfinder.com/data/icons/seo-flat-6/128/09_Responsive_Design-128.png" vertex="1" parent="84my8lBbuLi3B6D-7Pqr-62">
          <mxGeometry x="31" y="51" width="128" height="128" as="geometry" />
        </mxCell>
        <mxCell id="84my8lBbuLi3B6D-7Pqr-64" style="edgeStyle=orthogonalEdgeStyle;rounded=0;orthogonalLoop=1;jettySize=auto;html=1;exitX=1;exitY=0.5;exitDx=0;exitDy=0;entryX=1;entryY=0.75;entryDx=0;entryDy=0;" edge="1" parent="84my8lBbuLi3B6D-7Pqr-2" source="84my8lBbuLi3B6D-7Pqr-57" target="84my8lBbuLi3B6D-7Pqr-57">
          <mxGeometry relative="1" as="geometry" />
        </mxCell>
        <mxCell id="84my8lBbuLi3B6D-7Pqr-65" value="&lt;h1&gt;&lt;br&gt;&lt;/h1&gt;&lt;p&gt;Lorem ipsum dolor sit amet, consectetur adipisicing elit, sed do eiusmod tempor incididunt ut labore et dolore magna aliqua.&lt;/p&gt;" style="text;html=1;strokeColor=none;fillColor=none;spacing=5;spacingTop=-20;whiteSpace=wrap;overflow=hidden;rounded=0;fontColor=#FFFFFF;" vertex="1" parent="84my8lBbuLi3B6D-7Pqr-2">
          <mxGeometry x="240" y="550" width="190" height="240" as="geometry" />
        </mxCell>
        <mxCell id="84my8lBbuLi3B6D-7Pqr-68" value="&lt;h1&gt;&lt;br&gt;&lt;/h1&gt;&lt;p&gt;Lorem ipsum dolor sit amet, consectetur adipisicing elit, sed do eiusmod tempor incididunt ut labore et dolore magna aliqua.&lt;/p&gt;" style="text;html=1;strokeColor=none;fillColor=none;spacing=5;spacingTop=-20;whiteSpace=wrap;overflow=hidden;rounded=0;fontColor=#FFFFFF;" vertex="1" parent="84my8lBbuLi3B6D-7Pqr-2">
          <mxGeometry x="690" y="550" width="190" height="240" as="geometry" />
        </mxCell>
        <mxCell id="84my8lBbuLi3B6D-7Pqr-71" value="" style="shape=mxgraph.mockup.containers.marginRect;rectMarginTop=10;strokeColor=#666666;strokeWidth=1;dashed=0;rounded=1;arcSize=5;recursiveResize=0;html=1;whiteSpace=wrap;" vertex="1" parent="84my8lBbuLi3B6D-7Pqr-2">
          <mxGeometry x="75" y="780" width="165" height="200" as="geometry" />
        </mxCell>
        <mxCell id="84my8lBbuLi3B6D-7Pqr-72" value="Customer Support" style="shape=rect;strokeColor=none;fillColor=#008cff;strokeWidth=1;dashed=0;rounded=1;arcSize=20;fontColor=#ffffff;fontSize=17;spacing=2;spacingTop=-2;align=left;autosize=1;spacingLeft=4;resizeWidth=0;resizeHeight=0;perimeter=none;html=1;whiteSpace=wrap;" vertex="1" parent="84my8lBbuLi3B6D-7Pqr-71">
          <mxGeometry x="5" width="155" height="30" as="geometry" />
        </mxCell>
        <mxCell id="84my8lBbuLi3B6D-7Pqr-79" value="" style="sketch=0;points=[[0,0,0],[0.25,0,0],[0.5,0,0],[0.75,0,0],[1,0,0],[0,1,0],[0.25,1,0],[0.5,1,0],[0.75,1,0],[1,1,0],[0,0.25,0],[0,0.5,0],[0,0.75,0],[1,0.25,0],[1,0.5,0],[1,0.75,0]];outlineConnect=0;fontColor=#232F3E;fillColor=#C925D1;strokeColor=#ffffff;dashed=0;verticalLabelPosition=bottom;verticalAlign=top;align=center;html=1;fontSize=12;fontStyle=0;aspect=fixed;shape=mxgraph.aws4.resourceIcon;resIcon=mxgraph.aws4.support;" vertex="1" parent="84my8lBbuLi3B6D-7Pqr-71">
          <mxGeometry x="43.5" y="81" width="78" height="78" as="geometry" />
        </mxCell>
        <mxCell id="84my8lBbuLi3B6D-7Pqr-73" value="&lt;h1&gt;&lt;br&gt;&lt;/h1&gt;&lt;p&gt;Lorem ipsum dolor sit amet, consectetur adipisicing elit, sed do eiusmod tempor incididunt ut labore et dolore magna aliqua.&lt;/p&gt;" style="text;html=1;strokeColor=none;fillColor=none;spacing=5;spacingTop=-20;whiteSpace=wrap;overflow=hidden;rounded=0;fontColor=#FFFFFF;" vertex="1" parent="84my8lBbuLi3B6D-7Pqr-2">
          <mxGeometry x="250" y="780" width="190" height="120" as="geometry" />
        </mxCell>
        <mxCell id="84my8lBbuLi3B6D-7Pqr-74" value="" style="shape=mxgraph.mockup.containers.marginRect;rectMarginTop=10;strokeColor=#666666;strokeWidth=1;dashed=0;rounded=1;arcSize=5;recursiveResize=0;html=1;whiteSpace=wrap;" vertex="1" parent="84my8lBbuLi3B6D-7Pqr-2">
          <mxGeometry x="510" y="790" width="165" height="200" as="geometry" />
        </mxCell>
        <mxCell id="84my8lBbuLi3B6D-7Pqr-75" value="Fully Responsive&amp;nbsp;" style="shape=rect;strokeColor=none;fillColor=#008cff;strokeWidth=1;dashed=0;rounded=1;arcSize=20;fontColor=#ffffff;fontSize=17;spacing=2;spacingTop=-2;align=left;autosize=1;spacingLeft=4;resizeWidth=0;resizeHeight=0;perimeter=none;html=1;whiteSpace=wrap;" vertex="1" parent="84my8lBbuLi3B6D-7Pqr-74">
          <mxGeometry x="5" width="160" height="30" as="geometry" />
        </mxCell>
        <mxCell id="84my8lBbuLi3B6D-7Pqr-81" value="" style="shape=image;html=1;verticalAlign=top;verticalLabelPosition=bottom;labelBackgroundColor=#ffffff;imageAspect=0;aspect=fixed;image=https://cdn4.iconfinder.com/data/icons/web-development-and-studio/512/665_computerdevicesmobileresponsivetechnology-128.png" vertex="1" parent="84my8lBbuLi3B6D-7Pqr-74">
          <mxGeometry x="21" y="46" width="128" height="128" as="geometry" />
        </mxCell>
        <mxCell id="84my8lBbuLi3B6D-7Pqr-76" value="&lt;h1&gt;&lt;br&gt;&lt;/h1&gt;&lt;p&gt;Lorem ipsum dolor sit amet, consectetur adipisicing elit, sed do eiusmod tempor incididunt ut labore et dolore magna aliqua.&lt;/p&gt;" style="text;html=1;strokeColor=none;fillColor=none;spacing=5;spacingTop=-20;whiteSpace=wrap;overflow=hidden;rounded=0;fontColor=#FFFFFF;" vertex="1" parent="84my8lBbuLi3B6D-7Pqr-2">
          <mxGeometry x="700" y="780" width="190" height="240" as="geometry" />
        </mxCell>
        <mxCell id="84my8lBbuLi3B6D-7Pqr-83" value="Submit" style="strokeWidth=1;shadow=0;dashed=0;align=center;html=1;shape=mxgraph.mockup.buttons.button;strokeColor=#666666;fontColor=#ffffff;mainText=;buttonStyle=round;fontSize=17;fontStyle=1;fillColor=#008cff;whiteSpace=wrap;" vertex="1" parent="84my8lBbuLi3B6D-7Pqr-2">
          <mxGeometry x="385" y="2040" width="120" height="27" as="geometry" />
        </mxCell>
        <mxCell id="84my8lBbuLi3B6D-7Pqr-87" value="" style="shape=image;html=1;verticalAlign=top;verticalLabelPosition=bottom;labelBackgroundColor=#ffffff;imageAspect=0;aspect=fixed;image=https://cdn3.iconfinder.com/data/icons/free-social-icons/67/facebook_circle_color-128.png" vertex="1" parent="84my8lBbuLi3B6D-7Pqr-2">
          <mxGeometry x="900" y="180" width="40" height="40" as="geometry" />
        </mxCell>
        <mxCell id="84my8lBbuLi3B6D-7Pqr-88" value="" style="shape=image;html=1;verticalAlign=top;verticalLabelPosition=bottom;labelBackgroundColor=#ffffff;imageAspect=0;aspect=fixed;image=https://cdn2.iconfinder.com/data/icons/social-media-2285/512/1_Twitter2_colored_svg-128.png" vertex="1" parent="84my8lBbuLi3B6D-7Pqr-2">
          <mxGeometry x="900" y="230" width="40" height="40" as="geometry" />
        </mxCell>
        <mxCell id="84my8lBbuLi3B6D-7Pqr-89" value="" style="dashed=0;outlineConnect=0;html=1;align=center;labelPosition=center;verticalLabelPosition=bottom;verticalAlign=top;shape=mxgraph.webicons.github;gradientColor=#DFDEDE" vertex="1" parent="84my8lBbuLi3B6D-7Pqr-2">
          <mxGeometry x="900" y="280" width="40" height="40" as="geometry" />
        </mxCell>
        <mxCell id="84my8lBbuLi3B6D-7Pqr-90" value="" style="dashed=0;outlineConnect=0;html=1;align=center;labelPosition=center;verticalLabelPosition=bottom;verticalAlign=top;shape=mxgraph.webicons.instagram;gradientColor=#DFDEDE" vertex="1" parent="84my8lBbuLi3B6D-7Pqr-2">
          <mxGeometry x="900" y="323" width="40" height="40" as="geometry" />
        </mxCell>
        <mxCell id="84my8lBbuLi3B6D-7Pqr-92" value="" style="shape=image;html=1;verticalAlign=top;verticalLabelPosition=bottom;labelBackgroundColor=#ffffff;imageAspect=0;aspect=fixed;image=https://cdn4.iconfinder.com/data/icons/social-media-2146/512/4_social-128.png" vertex="1" parent="84my8lBbuLi3B6D-7Pqr-2">
          <mxGeometry x="900" y="371" width="39" height="39" as="geometry" />
        </mxCell>
        <mxCell id="84my8lBbuLi3B6D-7Pqr-93" value="" style="shape=image;html=1;verticalAlign=top;verticalLabelPosition=bottom;labelBackgroundColor=#ffffff;imageAspect=0;aspect=fixed;image=https://cdn3.iconfinder.com/data/icons/social-media-chat-1/512/Apple-128.png" vertex="1" parent="84my8lBbuLi3B6D-7Pqr-2">
          <mxGeometry x="66" y="1389" width="128" height="128" as="geometry" />
        </mxCell>
        <mxCell id="84my8lBbuLi3B6D-7Pqr-94" value="" style="shape=image;html=1;verticalAlign=top;verticalLabelPosition=bottom;labelBackgroundColor=#ffffff;imageAspect=0;aspect=fixed;image=https://cdn1.iconfinder.com/data/icons/unicons-line-vol-4/24/headphones-128.png" vertex="1" parent="84my8lBbuLi3B6D-7Pqr-2">
          <mxGeometry x="286" y="1381" width="128" height="128" as="geometry" />
        </mxCell>
        <mxCell id="84my8lBbuLi3B6D-7Pqr-97" value="" style="shape=mxgraph.cisco.buildings.small_business;html=1;pointerEvents=1;dashed=0;fillColor=#036897;strokeColor=#ffffff;strokeWidth=2;verticalLabelPosition=bottom;verticalAlign=top;align=center;outlineConnect=0;" vertex="1" parent="84my8lBbuLi3B6D-7Pqr-2">
          <mxGeometry x="750.5" y="1400" width="99" height="90" as="geometry" />
        </mxCell>
        <mxCell id="84my8lBbuLi3B6D-7Pqr-99" value="" style="shape=image;html=1;verticalAlign=top;verticalLabelPosition=bottom;labelBackgroundColor=#ffffff;imageAspect=0;aspect=fixed;image=https://cdn2.iconfinder.com/data/icons/font-awesome/1792/smile-o-128.png" vertex="1" parent="84my8lBbuLi3B6D-7Pqr-2">
          <mxGeometry x="516" y="1393" width="128" height="128" as="geometry" />
        </mxCell>
        <mxCell id="84my8lBbuLi3B6D-7Pqr-102" value="Download CV" style="strokeWidth=1;shadow=0;dashed=0;align=center;html=1;shape=mxgraph.mockup.buttons.button;strokeColor=#666666;fontColor=#ffffff;mainText=;buttonStyle=round;fontSize=17;fontStyle=1;fillColor=#008cff;whiteSpace=wrap;" vertex="1" parent="84my8lBbuLi3B6D-7Pqr-2">
          <mxGeometry x="385" y="400" width="120" height="27" as="geometry" />
        </mxCell>
        <mxCell id="84my8lBbuLi3B6D-7Pqr-104" value="" style="shape=image;html=1;verticalAlign=top;verticalLabelPosition=bottom;labelBackgroundColor=#ffffff;imageAspect=0;aspect=fixed;image=https://cdn2.iconfinder.com/data/icons/social-media-and-payment/64/-42-128.png" vertex="1" parent="84my8lBbuLi3B6D-7Pqr-2">
          <mxGeometry x="340" y="1081" width="69" height="69" as="geometry" />
        </mxCell>
        <mxCell id="84my8lBbuLi3B6D-7Pqr-105" value="" style="shape=image;html=1;verticalAlign=top;verticalLabelPosition=bottom;labelBackgroundColor=#ffffff;imageAspect=0;aspect=fixed;image=https://cdn2.iconfinder.com/data/icons/social-media-and-payment/64/-42-128.png" vertex="1" parent="84my8lBbuLi3B6D-7Pqr-2">
          <mxGeometry x="800" y="1081" width="70" height="70" as="geometry" />
        </mxCell>
        <mxCell id="84my8lBbuLi3B6D-7Pqr-5" value="Homepage&amp;nbsp;" style="text;html=1;strokeColor=none;fillColor=none;align=center;verticalAlign=middle;whiteSpace=wrap;rounded=0;fontSize=28;" vertex="1" parent="1">
          <mxGeometry x="610" y="-900" width="60" height="30" as="geometry" />
        </mxCell>
      </root>
    </mxGraphModel>
  </diagram>
</mxfile>
